<mxfile host="app.diagrams.net" agent="Mozilla/5.0 (Windows NT 10.0; Win64; x64) AppleWebKit/537.36 (KHTML, like Gecko) Chrome/138.0.0.0 Safari/537.36" version="28.0.7">
  <diagram name="Page-1" id="PJX9JKJy5KzWJc68_nqa">
    <mxGraphModel dx="2852" dy="1554" grid="1" gridSize="10" guides="1" tooltips="1" connect="1" arrows="1" fold="1" page="1" pageScale="1" pageWidth="850" pageHeight="1100" math="0" shadow="0">
      <root>
        <mxCell id="0" />
        <mxCell id="1" parent="0" />
        <mxCell id="8NNf2UId70UZPEbqITqU-7" value="" style="rounded=0;whiteSpace=wrap;html=1;" vertex="1" parent="1">
          <mxGeometry y="160" width="1730" height="490" as="geometry" />
        </mxCell>
        <mxCell id="8NNf2UId70UZPEbqITqU-1" value="Title&amp;nbsp;" style="rounded=0;whiteSpace=wrap;html=1;" vertex="1" parent="1">
          <mxGeometry y="10" width="1730" height="90" as="geometry" />
        </mxCell>
        <mxCell id="8NNf2UId70UZPEbqITqU-2" value="Nav bar" style="rounded=0;whiteSpace=wrap;html=1;" vertex="1" parent="1">
          <mxGeometry x="1400" y="60" width="60" height="20" as="geometry" />
        </mxCell>
        <mxCell id="8NNf2UId70UZPEbqITqU-3" value="Nav bar" style="rounded=0;whiteSpace=wrap;html=1;" vertex="1" parent="1">
          <mxGeometry x="1460" y="60" width="60" height="20" as="geometry" />
        </mxCell>
        <mxCell id="8NNf2UId70UZPEbqITqU-4" value="Nav bar" style="rounded=0;whiteSpace=wrap;html=1;" vertex="1" parent="1">
          <mxGeometry x="1520" y="60" width="70" height="20" as="geometry" />
        </mxCell>
        <mxCell id="8NNf2UId70UZPEbqITqU-5" value="Nav bar" style="rounded=0;whiteSpace=wrap;html=1;" vertex="1" parent="1">
          <mxGeometry x="1340" y="60" width="60" height="20" as="geometry" />
        </mxCell>
        <mxCell id="8NNf2UId70UZPEbqITqU-9" value="" style="endArrow=none;html=1;rounded=0;exitX=0.008;exitY=0.016;exitDx=0;exitDy=0;exitPerimeter=0;entryX=0.994;entryY=0.986;entryDx=0;entryDy=0;entryPerimeter=0;" edge="1" parent="1" source="8NNf2UId70UZPEbqITqU-7" target="8NNf2UId70UZPEbqITqU-7">
          <mxGeometry width="50" height="50" relative="1" as="geometry">
            <mxPoint x="400" y="430" as="sourcePoint" />
            <mxPoint x="450" y="380" as="targetPoint" />
          </mxGeometry>
        </mxCell>
        <mxCell id="8NNf2UId70UZPEbqITqU-14" value="" style="endArrow=none;html=1;rounded=0;entryX=1;entryY=0;entryDx=0;entryDy=0;exitX=0;exitY=1;exitDx=0;exitDy=0;" edge="1" parent="1" source="8NNf2UId70UZPEbqITqU-7" target="8NNf2UId70UZPEbqITqU-7">
          <mxGeometry width="50" height="50" relative="1" as="geometry">
            <mxPoint x="180" y="535" as="sourcePoint" />
            <mxPoint x="1666" y="220" as="targetPoint" />
          </mxGeometry>
        </mxCell>
        <mxCell id="8NNf2UId70UZPEbqITqU-17" value="intro text&lt;div&gt;&lt;br&gt;&lt;/div&gt;" style="rounded=0;whiteSpace=wrap;html=1;" vertex="1" parent="1">
          <mxGeometry y="260" width="290" height="230" as="geometry" />
        </mxCell>
        <mxCell id="8NNf2UId70UZPEbqITqU-18" value="call to action to go to games played&amp;nbsp;" style="rounded=0;whiteSpace=wrap;html=1;" vertex="1" parent="1">
          <mxGeometry x="1400" y="320" width="290" height="90" as="geometry" />
        </mxCell>
        <mxCell id="8NNf2UId70UZPEbqITqU-19" value="Club name and purpsoe&amp;nbsp;" style="rounded=0;whiteSpace=wrap;html=1;" vertex="1" parent="1">
          <mxGeometry x="30" y="690" width="800" height="340" as="geometry" />
        </mxCell>
        <mxCell id="8NNf2UId70UZPEbqITqU-20" value="&amp;nbsp;a come along of things that are available&amp;nbsp;" style="rounded=0;whiteSpace=wrap;html=1;" vertex="1" parent="1">
          <mxGeometry x="850" y="690" width="890" height="330" as="geometry" />
        </mxCell>
      </root>
    </mxGraphModel>
  </diagram>
</mxfile>
